<svg width="356" height="370" viewBox="0 0 356 370" fill="none" xmlns="http://www.w3.org/2000/svg">
<path d="M320.4 0H35.6C15.9387 0 0 16.5655 0 37V333C0 353.435 15.9387 370 35.6 370H320.4C340.061 370 356 353.435 356 333V37C356 16.5655 340.061 0 320.4 0Z" fill="#2C8B15"/>
<path d="M220.211 54.4429H136.297C119.445 54.4429 105.783 68.6418 105.783 86.1572V173.371C105.783 190.887 119.445 205.086 136.297 205.086H220.211C237.064 205.086 250.726 190.887 250.726 173.371V86.1572C250.726 68.6418 237.064 54.4429 220.211 54.4429Z" fill="white"/>
<path fill-rule="evenodd" clip-rule="evenodd" d="M217.075 147.416C211.009 147.416 205.186 146.408 199.752 144.542C198.053 143.987 196.161 144.39 194.802 145.752L184.126 156.848C170.393 149.585 159.135 137.935 152.147 123.611L162.823 112.465C164.182 111.154 164.57 109.187 164.036 107.422C162.241 101.773 161.27 95.7211 161.27 89.4169C161.27 86.6429 159.086 84.3732 156.417 84.3732H139.433C136.764 84.3732 134.581 86.6429 134.581 89.4169C134.581 136.775 171.509 175.155 217.075 175.155C219.744 175.155 221.928 172.886 221.928 170.112V152.46C221.928 149.686 219.744 147.416 217.075 147.416ZM212.223 129.764H221.928C221.928 104.698 202.372 84.3732 178.254 84.3732V94.46C197.034 94.46 212.223 110.246 212.223 129.764ZM202.517 129.764H192.812C192.812 121.392 186.31 114.634 178.254 114.634V104.547C191.647 104.547 202.517 115.844 202.517 129.764Z" fill="#2C8B15"/>
<path d="M313.28 16.3857H43.2286C28.3421 16.3857 16.2743 28.9282 16.2743 44.4V325.071C16.2743 340.543 28.3421 353.086 43.2286 353.086H313.28C328.166 353.086 340.234 340.543 340.234 325.071V44.4C340.234 28.9282 328.166 16.3857 313.28 16.3857Z" stroke="white" stroke-width="14"/>
<path d="M68.1603 282.257V252.195H77.0603C79.6031 252.195 81.8749 252.794 83.8746 253.991C85.8876 255.175 87.457 256.868 88.583 259.07C89.7085 261.259 90.2714 263.75 90.2714 266.544V267.928C90.2714 270.722 89.7151 273.207 88.6028 275.381C87.5033 277.557 85.9471 279.243 83.9341 280.44C81.9212 281.638 79.6499 282.243 77.1203 282.257H68.1603ZM74.1202 257.212V277.281H77.0008C79.3321 277.281 81.1131 276.49 82.3448 274.907C83.5766 273.324 84.2057 271.059 84.2322 268.114V266.524C84.2322 263.468 83.6229 261.156 82.4044 259.586C81.1858 258.004 79.4048 257.212 77.0603 257.212H74.1202ZM112.025 269.229H100.582V277.281H114.012V282.257H94.6223V252.195H113.972V257.212H100.582V264.377H112.025V269.229ZM141.029 282.257H135.069L123.467 262.477V282.257H117.508V252.195H123.467L135.089 272.016V252.195H141.029V282.257ZM168.127 252.195V271.995C168.127 275.285 167.133 277.887 165.147 279.8C163.173 281.713 160.472 282.67 157.041 282.67C153.664 282.67 150.982 281.741 148.996 279.883C147.009 278.024 145.996 275.471 145.956 272.223V252.195H151.916V272.037C151.916 274.005 152.366 275.443 153.267 276.352C154.181 277.247 155.439 277.694 157.041 277.694C160.392 277.694 162.094 275.864 162.147 272.202V252.195H168.127ZM158.114 244.142H164.372L158.869 250.543H154.2L158.114 244.142ZM196.535 282.257H190.575L178.973 262.477V282.257H173.013V252.195H178.973L190.595 272.016V252.195H196.535V282.257ZM224.447 272.243C224.222 275.478 223.07 278.024 220.99 279.883C218.924 281.741 216.196 282.67 212.806 282.67C209.097 282.67 206.177 281.376 204.044 278.789C201.925 276.187 200.866 272.622 200.866 268.093V266.256C200.866 263.365 201.356 260.818 202.336 258.616C203.316 256.414 204.713 254.728 206.528 253.557C208.356 252.374 210.474 251.782 212.885 251.782C216.222 251.782 218.911 252.711 220.95 254.569C222.99 256.427 224.169 259.036 224.487 262.394H218.527C218.381 260.454 217.858 259.05 216.958 258.182C216.07 257.301 214.713 256.861 212.885 256.861C210.898 256.861 209.408 257.604 208.415 259.091C207.435 260.564 206.932 262.855 206.905 265.967V268.238C206.905 271.486 207.375 273.861 208.315 275.361C209.269 276.861 210.766 277.612 212.806 277.612C214.646 277.612 216.017 277.178 216.917 276.311C217.831 275.43 218.355 274.074 218.487 272.243H224.447ZM234.698 282.257H228.738V252.195H234.698V282.257ZM256.928 276.063H246.478L244.492 282.257H238.154L248.922 252.195H254.444L265.272 282.257H258.935L256.928 276.063ZM248.087 271.046H255.319L251.683 259.793L248.087 271.046ZM282.972 274.37C282.972 273.2 282.575 272.305 281.78 271.686C280.986 271.052 279.556 270.392 277.489 269.704C275.423 269.002 273.787 268.313 272.583 267.639C269.298 265.794 267.656 263.31 267.656 260.185C267.656 258.561 268.092 257.116 268.967 255.849C269.854 254.569 271.119 253.571 272.761 252.855C274.417 252.14 276.271 251.782 278.324 251.782C280.39 251.782 282.231 252.174 283.846 252.958C285.462 253.73 286.714 254.824 287.601 256.241C288.502 257.66 288.952 259.27 288.952 261.073H282.992C282.992 259.697 282.575 258.629 281.74 257.873C280.906 257.102 279.734 256.717 278.224 256.717C276.768 256.717 275.635 257.04 274.827 257.687C274.019 258.32 273.616 259.16 273.616 260.206C273.616 261.183 274.085 262.002 275.026 262.663C275.979 263.324 277.377 263.943 279.217 264.521C282.608 265.581 285.078 266.896 286.628 268.465C288.177 270.034 288.952 271.989 288.952 274.329C288.952 276.93 288.005 278.974 286.111 280.461C284.217 281.934 281.668 282.67 278.463 282.67C276.238 282.67 274.212 282.25 272.384 281.41C270.556 280.557 269.159 279.394 268.192 277.921C267.239 276.448 266.762 274.741 266.762 272.8H272.741C272.741 276.118 274.648 277.776 278.463 277.776C279.88 277.776 280.986 277.481 281.78 276.889C282.575 276.283 282.972 275.443 282.972 274.37Z" fill="white"/>
<path d="M77.4183 321.52H66.9687L64.9817 327.714H58.6444L69.4118 297.652H74.9349L85.7619 327.714H79.4246L77.4183 321.52ZM68.5778 316.503H75.8087L72.1734 305.25L68.5778 316.503ZM96.2512 297.652L103.681 319.455L111.071 297.652H118.898V327.714H112.919V319.497L113.515 305.312L105.708 327.714H101.615L93.8273 305.332L94.4234 319.497V327.714H88.4634V297.652H96.2512ZM124.103 327.714V297.652H134.235C137.745 297.652 140.407 298.354 142.221 299.758C144.036 301.148 144.943 303.192 144.943 305.89C144.943 307.363 144.579 308.664 143.85 309.793C143.122 310.907 142.109 311.727 140.811 312.249C142.294 312.635 143.459 313.413 144.307 314.582C145.168 315.753 145.598 317.184 145.598 318.877C145.598 321.768 144.711 323.957 142.937 325.443C141.162 326.93 138.632 327.687 135.348 327.714H124.103ZM130.063 314.624V322.738H135.169C136.573 322.738 137.665 322.394 138.447 321.706C139.241 321.004 139.638 320.04 139.638 318.815C139.638 316.062 138.268 314.665 135.526 314.624H130.063ZM130.063 310.247H134.473C137.48 310.192 138.983 308.946 138.983 306.51C138.983 305.147 138.599 304.17 137.831 303.578C137.076 302.972 135.877 302.669 134.235 302.669H130.063V310.247ZM156.425 327.714H150.465V297.652H156.425V327.714ZM179.371 314.686H167.928V322.738H181.358V327.714H161.968V297.652H181.317V302.669H167.928V309.834H179.371V314.686ZM208.375 327.714H202.415L190.813 307.934V327.714H184.854V297.652H190.813L202.435 317.473V297.652H208.375V327.714ZM234.758 302.669H225.897V327.714H219.937V302.669H211.196V297.652H234.758V302.669ZM252.12 321.52H241.671L239.684 327.714H233.347L244.114 297.652H249.637L260.464 327.714H254.127L252.12 321.52ZM243.28 316.503H250.511L246.876 305.25L243.28 316.503ZM269.503 327.714H263.543V297.652H269.503V327.714ZM290.044 319.827C290.044 318.657 289.647 317.762 288.853 317.143C288.058 316.51 286.628 315.849 284.561 315.161C282.496 314.459 280.86 313.771 279.655 313.096C276.37 311.251 274.728 308.767 274.728 305.642C274.728 304.018 275.165 302.573 276.039 301.306C276.926 300.026 278.191 299.028 279.833 298.312C281.489 297.597 283.343 297.239 285.396 297.239C287.462 297.239 289.303 297.631 290.919 298.416C292.534 299.187 293.786 300.281 294.673 301.699C295.574 303.117 296.024 304.727 296.024 306.53H290.065C290.065 305.154 289.647 304.087 288.813 303.33C287.978 302.559 286.806 302.174 285.297 302.174C283.84 302.174 282.707 302.497 281.9 303.144C281.091 303.777 280.688 304.617 280.688 305.663C280.688 306.64 281.158 307.459 282.098 308.12C283.051 308.781 284.449 309.4 286.29 309.978C289.68 311.038 292.15 312.353 293.7 313.922C295.25 315.491 296.024 317.446 296.024 319.786C296.024 322.387 295.077 324.431 293.183 325.918C291.289 327.391 288.74 328.127 285.535 328.127C283.31 328.127 281.284 327.707 279.456 326.868C277.628 326.014 276.231 324.851 275.264 323.378C274.311 321.905 273.834 320.199 273.834 318.258H279.813C279.813 321.575 281.721 323.234 285.535 323.234C286.952 323.234 288.058 322.938 288.853 322.346C289.647 321.74 290.044 320.9 290.044 319.827Z" fill="white"/>
</svg>
