<svg width="643" height="585" viewBox="0 0 643 585" fill="none" xmlns="http://www.w3.org/2000/svg">
<path d="M578.7 0H64.3C28.7881 0 0 26.1913 0 58.5V526.5C0 558.809 28.7881 585 64.3 585H578.7C614.212 585 643 558.809 643 526.5V58.5C643 26.1913 614.212 0 578.7 0Z" fill="#2C8B15"/>
<path d="M397.741 86.0786H246.177C215.738 86.0786 191.063 108.528 191.063 136.221V274.114C191.063 301.807 215.738 324.257 246.177 324.257H397.741C428.18 324.257 452.856 301.807 452.856 274.114V136.221C452.856 108.528 428.18 86.0786 397.741 86.0786Z" fill="white"/>
<path fill-rule="evenodd" clip-rule="evenodd" d="M392.077 233.077C381.121 233.077 370.603 231.483 360.787 228.532C357.719 227.655 354.301 228.293 351.847 230.446L332.564 247.989C307.761 236.506 287.426 218.086 274.805 195.439L294.088 177.817C296.541 175.743 297.243 172.633 296.279 169.842C293.036 160.912 291.283 151.343 291.283 141.375C291.283 136.989 287.338 133.401 282.518 133.401H251.842C247.021 133.401 243.077 136.989 243.077 141.375C243.077 216.252 309.776 276.935 392.077 276.935C396.897 276.935 400.842 273.346 400.842 268.96V241.052C400.842 236.666 396.897 233.077 392.077 233.077ZM383.312 205.168H400.842C400.842 165.537 365.52 133.401 321.959 133.401V149.349C355.878 149.349 383.312 174.308 383.312 205.168ZM365.782 205.168H348.253C348.253 191.931 336.509 181.246 321.959 181.246V165.298C346.15 165.298 365.782 183.159 365.782 205.168Z" fill="#2C8B15"/>
<path d="M565.84 25.9072H78.0786C51.191 25.9072 29.3943 45.7378 29.3943 70.2V513.964C29.3943 538.427 51.191 558.257 78.0786 558.257H565.84C592.728 558.257 614.524 538.427 614.524 513.964V70.2C614.524 45.7378 592.728 25.9072 565.84 25.9072Z" stroke="white" stroke-width="14"/>
<path d="M123.11 446.271V398.74H139.185C143.778 398.74 147.881 399.687 151.493 401.58C155.128 403.452 157.963 406.129 159.997 409.611C162.03 413.071 163.046 417.011 163.046 421.428V423.616C163.046 428.034 162.041 431.962 160.033 435.4C158.047 438.839 155.236 441.505 151.6 443.398C147.964 445.292 143.862 446.25 139.293 446.271H123.11ZM133.874 406.673V438.404H139.077C143.288 438.404 146.505 437.153 148.73 434.65C150.954 432.147 152.091 428.567 152.138 423.909V421.396C152.138 416.564 151.038 412.908 148.837 410.427C146.636 407.925 143.419 406.673 139.185 406.673H133.874ZM202.336 425.673H181.669V438.404H205.925V446.271H170.905V398.74H205.854V406.673H181.669V418.001H202.336V425.673ZM254.724 446.271H243.96L223.004 414.997V446.271H212.241V398.74H223.004L243.996 430.079V398.74H254.724V446.271ZM303.667 398.74V430.047C303.667 435.248 301.873 439.362 298.285 442.387C294.72 445.411 289.841 446.924 283.645 446.924C277.545 446.924 272.701 445.455 269.113 442.517C265.524 439.579 263.694 435.542 263.623 430.406V398.74H274.387V430.112C274.387 433.224 275.2 435.498 276.827 436.935C278.478 438.35 280.75 439.057 283.645 439.057C289.697 439.057 292.771 436.163 292.866 430.374V398.74H303.667ZM285.582 386.009H296.885L286.946 396.129H278.514L285.582 386.009ZM354.977 446.271H344.214L323.258 414.997V446.271H312.493V398.74H323.258L344.249 430.079V398.74H354.977V446.271ZM405.391 430.439C404.984 435.553 402.904 439.579 399.148 442.517C395.417 445.455 390.488 446.924 384.365 446.924C377.667 446.924 372.393 444.878 368.541 440.787C364.713 436.674 362.8 431.037 362.8 423.877V420.972C362.8 416.401 363.684 412.375 365.455 408.892C367.226 405.411 369.749 402.745 373.026 400.895C376.328 399.023 380.154 398.087 384.508 398.087C390.536 398.087 395.393 399.557 399.076 402.494C402.761 405.433 404.889 409.557 405.463 414.867H394.699C394.435 411.798 393.49 409.579 391.864 408.207C390.261 406.814 387.81 406.118 384.508 406.118C380.921 406.118 378.229 407.293 376.435 409.644C374.665 411.972 373.756 415.596 373.708 420.515V424.106C373.708 429.241 374.557 432.996 376.255 435.368C377.977 437.74 380.681 438.926 384.365 438.926C387.689 438.926 390.166 438.241 391.792 436.87C393.443 435.476 394.388 433.333 394.627 430.439H405.391ZM423.906 446.271H413.142V398.74H423.906V446.271ZM464.058 436.478H445.184L441.596 446.271H430.15L449.598 398.74H459.572L479.129 446.271H467.682L464.058 436.478ZM448.09 428.545H461.151L454.585 410.754L448.09 428.545ZM511.099 433.801C511.099 431.951 510.381 430.537 508.946 429.557C507.511 428.556 504.928 427.511 501.196 426.423C497.463 425.313 494.509 424.225 492.333 423.159C486.4 420.242 483.434 416.314 483.434 411.374C483.434 408.806 484.223 406.521 485.802 404.518C487.405 402.494 489.69 400.916 492.656 399.785C495.646 398.653 498.995 398.087 502.703 398.087C506.434 398.087 509.759 398.708 512.678 399.948C515.596 401.167 517.857 402.897 519.46 405.138C521.086 407.381 521.899 409.926 521.899 412.778H511.135C511.135 410.601 510.381 408.914 508.874 407.717C507.367 406.499 505.25 405.89 502.523 405.89C499.892 405.89 497.846 406.401 496.388 407.424C494.928 408.425 494.199 409.752 494.199 411.406C494.199 412.951 495.048 414.247 496.746 415.291C498.468 416.336 500.993 417.316 504.317 418.229C510.441 419.905 514.902 421.984 517.701 424.464C520.5 426.946 521.899 430.036 521.899 433.736C521.899 437.849 520.189 441.081 516.768 443.432C513.347 445.76 508.743 446.924 502.954 446.924C498.935 446.924 495.275 446.261 491.974 444.933C488.673 443.584 486.149 441.744 484.403 439.416C482.681 437.087 481.819 434.388 481.819 431.32H492.62C492.62 436.565 496.064 439.187 502.954 439.187C505.514 439.187 507.511 438.72 508.946 437.784C510.381 436.826 511.099 435.498 511.099 433.801Z" fill="white"/>
<path d="M139.831 508.349H120.957L117.369 518.143H105.922L125.37 470.612H135.346L154.901 518.143H143.455L139.831 508.349ZM123.864 500.417H136.924L130.358 482.625L123.864 500.417ZM173.847 470.612L187.266 505.085L200.614 470.612H214.752V518.143H203.951V505.15L205.028 482.723L190.927 518.143H183.535L169.469 482.755L170.546 505.15V518.143H159.781V470.612H173.847ZM224.153 518.143V470.612H242.452C248.791 470.612 253.6 471.721 256.877 473.941C260.154 476.14 261.793 479.372 261.793 483.637C261.793 485.965 261.135 488.022 259.82 489.807C258.503 491.57 256.674 492.865 254.329 493.692C257.009 494.301 259.113 495.531 260.645 497.38C262.2 499.231 262.977 501.494 262.977 504.171C262.977 508.741 261.374 512.202 258.169 514.552C254.963 516.903 250.394 518.099 244.462 518.143H224.153ZM234.917 497.446V510.275H244.139C246.675 510.275 248.648 509.731 250.06 508.643C251.495 507.533 252.212 506.01 252.212 504.073C252.212 499.72 249.737 497.511 244.785 497.446H234.917ZM234.917 490.525H242.883C248.314 490.438 251.028 488.468 251.028 484.617C251.028 482.462 250.335 480.917 248.948 479.981C247.583 479.023 245.418 478.544 242.452 478.544H234.917V490.525ZM282.532 518.143H271.768V470.612H282.532V518.143ZM323.975 497.544H303.308V510.275H327.564V518.143H292.544V470.612H327.492V478.544H303.308V489.872H323.975V497.544ZM376.363 518.143H365.599L344.643 486.869V518.143H333.88V470.612H344.643L365.635 501.951V470.612H376.363V518.143ZM424.014 478.544H408.011V518.143H397.246V478.544H381.458V470.612H424.014V478.544ZM455.374 508.349H436.5L432.913 518.143H421.466L440.914 470.612H450.889L470.444 518.143H458.999L455.374 508.349ZM439.407 500.417H452.468L445.902 482.625L439.407 500.417ZM486.771 518.143H476.006V470.612H486.771V518.143ZM523.872 505.672C523.872 503.823 523.155 502.408 521.72 501.429C520.284 500.427 517.701 499.383 513.969 498.295C510.238 497.185 507.284 496.097 505.107 495.03C499.174 492.114 496.208 488.186 496.208 483.245C496.208 480.677 496.998 478.392 498.576 476.39C500.179 474.366 502.463 472.788 505.429 471.656C508.42 470.525 511.768 469.959 515.476 469.959C519.208 469.959 522.533 470.579 525.451 471.819C528.37 473.039 530.63 474.768 532.233 477.01C533.86 479.252 534.673 481.798 534.673 484.649H523.909C523.909 482.473 523.155 480.786 521.648 479.589C520.141 478.37 518.024 477.761 515.297 477.761C512.666 477.761 510.62 478.273 509.161 479.296C507.702 480.297 506.972 481.624 506.972 483.278C506.972 484.823 507.822 486.118 509.52 487.163C511.242 488.208 513.766 489.187 517.091 490.1C523.214 491.777 527.676 493.855 530.475 496.336C533.274 498.817 534.673 501.907 534.673 505.607C534.673 509.721 532.962 512.952 529.542 515.303C526.121 517.631 521.516 518.796 515.727 518.796C511.708 518.796 508.049 518.132 504.748 516.804C501.446 515.455 498.923 513.616 497.177 511.288C495.454 508.958 494.594 506.26 494.594 503.191H505.393C505.393 508.436 508.838 511.059 515.727 511.059C518.287 511.059 520.284 510.591 521.72 509.655C523.155 508.698 523.872 507.37 523.872 505.672Z" fill="white"/>
</svg>
